<svg xmlns="http://www.w3.org/2000/svg" xmlns:xlink="http://www.w3.org/1999/xlink" version="1.1" id="Layer_1" x="0px" y="0px" width="100px" height="100.119px" viewBox="5.0 -10.0119 100.0 135.16065" enable-background="new 0 0 100 100.119" xml:space="preserve">
<g id="Layer_1_1_">
	<g id="Layer_2_3_">
		<path fill="#010101" d="M85.795,47.718h-0.529L72.049,63.801L58.684,47.718h-0.621c-8.11,0-14.223,4.685-14.223,12.958v34.301    c0,2.775,2.254,5.025,5.03,5.025c2.774,0,5.024-2.25,5.024-5.025l0.004-30.709h3.156v35.852h29.738V64.268h3.148l0.018,30.709    c0,2.775,2.252,5.025,5.021,5.025c2.771,0,5.02-2.25,5.02-5.025V60.678C100.012,52.402,93.896,47.718,85.795,47.718z"/>
		<path fill="#010101" d="M85.658,40.104c-0.545-0.469-1.246-0.626-1.912-0.539c0,0,0.023-11.702,0.023-11.779    c0-6.542-5.307-11.841-11.84-11.841s-11.824,5.3-11.824,11.841c0,0.122-0.039,11.754-0.039,11.754    c-0.631-0.06-1.211,0.116-1.736,0.564c-1.008,0.859-1.133,2.359-0.307,3.383l14.027,16.878l14.02-17.061    C86.752,42.292,86.619,40.918,85.658,40.104z M63.717,30.034c0-0.918,0.74-1.659,1.656-1.659h3.732    c0.918,0,1.662,0.743,1.662,1.659c0,0.916-0.744,1.658-1.662,1.658h-3.732C64.457,31.692,63.717,30.949,63.717,30.034z     M71.941,41.712c-1.629,0-2.959-1.329-2.959-2.968c0-1.631,1.33-2.966,2.959-2.966c1.639,0,2.969,1.333,2.969,2.966    C74.91,40.383,73.58,41.712,71.941,41.712z M78.375,31.692h-3.736c-0.916,0-1.658-0.745-1.658-1.658    c0-0.918,0.742-1.659,1.658-1.659h3.736c0.92,0,1.658,0.743,1.658,1.659C80.033,30.949,79.295,31.692,78.375,31.692z"/>
	</g>
</g>
<polygon fill="#010101" points="34.862,19.783 34.862,0 31.469,0 31.469,36.08 38.04,36.08 38.04,19.783 "/>
<path fill="#010101" d="M40.804,96.943l-0.076-33.041l-2.559,0.006l-0.058-25.966l-6.551,0.016l0.059,24.511  c0,0-2.023,3.469-8.359,3.469c-5.785,0-18.815-7.578-18.815-7.578L0,69.35c0,0,9.36,4.662,14.489,5.459  c1.918,0.301,3.973,0.426,5.94,0.457c-1.158,1.289-1.882,2.977-1.882,4.84c0,2.35,1.137,4.418,2.869,5.754l-11.172,5.672  l4.596,8.168l11.366-7.838c0,0,1.162-0.822,2.192-0.277c0.929,0.492,1.053,1.715,1.053,1.715l0.01,3.678l3.845-0.025l-0.048,3.102  h4.448l-0.002-3.109H40.804z M25.787,83.674c-1.956,0-3.539-1.586-3.539-3.539c0-1.951,1.583-3.535,3.539-3.535  c1.503,0,2.78,0.941,3.294,2.266h-3.635v2.793h3.523C28.398,82.846,27.195,83.674,25.787,83.674z"/>
<text x="0.0" y="117.639825" font-size="5.00595" font-weight="bold" font-family="Helvetica Neue, Helvetica, Arial-Unicode, Arial, Sans-serif" fill="#000000">Created by Luis Prado</text><text x="0.0" y="122.645775" font-size="5.00595" font-weight="bold" font-family="Helvetica Neue, Helvetica, Arial-Unicode, Arial, Sans-serif" fill="#000000">from the Noun Project</text></svg>